<svg xmlns="http://www.w3.org/2000/svg" viewBox="0 0 512 512">
  <defs>
    <linearGradient id="bg" x1="0" y1="0" x2="1" y2="1">
      <stop offset="0%" stop-color="#1a1a2e"/>
      <stop offset="100%" stop-color="#0f1117"/>
    </linearGradient>
  </defs>
  <rect width="512" height="512" rx="96" fill="url(#bg)"/>
  <!-- Cricket ball -->
  <circle cx="256" cy="220" r="100" fill="#e74c3c" stroke="#c0392b" stroke-width="4"/>
  <!-- Ball seam -->
  <path d="M180 180 Q220 220 200 270" fill="none" stroke="#fff" stroke-width="3" stroke-linecap="round"/>
  <path d="M332 180 Q292 220 312 270" fill="none" stroke="#fff" stroke-width="3" stroke-linecap="round"/>
  <!-- Seam stitches left -->
  <path d="M185 190 L195 195" fill="none" stroke="#fff" stroke-width="2"/>
  <path d="M182 205 L193 208" fill="none" stroke="#fff" stroke-width="2"/>
  <path d="M181 220 L192 222" fill="none" stroke="#fff" stroke-width="2"/>
  <path d="M183 235 L194 236" fill="none" stroke="#fff" stroke-width="2"/>
  <path d="M188 250 L198 250" fill="none" stroke="#fff" stroke-width="2"/>
  <!-- Seam stitches right -->
  <path d="M327 190 L317 195" fill="none" stroke="#fff" stroke-width="2"/>
  <path d="M330 205 L319 208" fill="none" stroke="#fff" stroke-width="2"/>
  <path d="M331 220 L320 222" fill="none" stroke="#fff" stroke-width="2"/>
  <path d="M329 235 L318 236" fill="none" stroke="#fff" stroke-width="2"/>
  <path d="M324 250 L314 250" fill="none" stroke="#fff" stroke-width="2"/>
  <!-- CP text -->
  <text x="256" y="400" text-anchor="middle" font-family="Arial,sans-serif" font-weight="bold" font-size="80" fill="#34d399" letter-spacing="8">CP</text>
</svg>
